PathFileType	4	(X/Y/Z)	6_coords_data.trc
DataRate	CameraRate	NumFrames	NumMarkers	Units	OrigDataRate	OrigDataStartFrame	OrigNumFrames
30.0	30.0	6	21	m	30.0	61	71
Frame#	Time	THUMB_TIP	THUMB_IP	THUMB_MCP	THUMB_CMC	INDEX_TIP	INDEX_DIP	INDEX_PIP	INDEX_MCP	MIDDLE_TIP	MIDDLE_DIP	MIDDLE_PIP	MIDDLE_MCP	RING_TIP	RING_DIP	RING_PIP	RING_MCP	PINKY_TIP	PINKY_DIP	PINKY_PIP	PINKY_MCP	WRIST
X1	Y1	Z1	X2	Y2	Z2	X3	Y3	Z3	X4	Y4	Z4	X5	Y5	Z5	X6	Y6	Z6	X7	Y7	Z7	X8	Y8	Z8	X9	Y9	Z9	X10	Y10	Z10	X11	Y11	Z11	X12	Y12	Z12	X13	Y13	Z13	X14	Y14	Z14	X15	Y15	Z15	X16	Y16	Z16	X17	Y17	Z17	X18	Y18	Z18	X19	Y19	Z19	X20	Y20	Z20	X21	Y21	Z21
60	2.0	0.03914739990234375	-0.1128479995727539	1.0119000244140626	0.02971769905090332	-0.08971559906005859	1.0246600341796874	0.0075047101974487305	-0.07491699981689454	1.04397998046875	-0.007032740116119385	-0.042050498962402344	1.055510009765625	0.031489200592041015	-0.0763010025024414	0.9219509887695313	0.020164199829101562	-0.07306710052490234	0.9421599731445313	0.008638540267944335	-0.06882150268554688	0.96410498046875	-0.007491320133209228	-0.058922100067138675	0.9999030151367188	0.034154098510742185	-0.03730810165405273	0.9051699829101563	0.02056209945678711	-0.03806370162963867	0.9268839721679687	0.0040877599716186526	-0.038162200927734376	0.9543280029296874	-0.013384499549865723	-0.03530599975585937	0.9924959716796875	0.02992169952392578	0.001623970031738281	0.9114829711914062	0.018726999282836915	-0.002180229902267456	0.9332260131835938	0.0059287500381469726	-0.00674714994430542	0.9589110107421875	-0.010330300331115722	-0.01315820026397705	0.9961220092773437	0.029663700103759766	0.03625930023193359	0.95089599609375	0.019432199478149413	0.02784480094909668	0.967031982421875	0.00904973030090332	0.01982780075073242	0.981916015625	-0.006755340099334717	0.0061568799018859866	1.0045599975585937	-0.03736449813842774	-0.015452199935913086	1.0729000244140625
61	2.033333333333333	0.03682270050048828	-0.11339299774169923	1.0091699829101564	0.02864229965209961	-0.09001149749755859	1.0224199829101563	0.007496049880981445	-0.074716796875	1.0425	-0.00676701021194458	-0.042112098693847654	1.0549200439453126	0.03173500061035156	-0.0758324966430664	0.9218419799804688	0.020388599395751952	-0.07270709991455078	0.9420880126953125	0.008834810256958007	-0.0686083984375	0.964031005859375	-0.007265779972076416	-0.05901449966430664	0.9997919921875	0.034479698181152346	-0.036980701446533204	0.905198974609375	0.02079899978637695	-0.037826698303222654	0.926905029296875	0.00421792984008789	-0.038060100555419925	0.9542769775390625	-0.013345199584960938	-0.03535179901123047	0.9925150146484375	0.030270700454711915	0.0018500699996948243	0.9116279907226562	0.019010299682617186	-0.0020691299438476557	0.9333790283203125	0.0061314101219177245	-0.006695350170135498	0.9589630126953125	-0.01032800006866455	-0.013223699569702149	0.9960250244140625	0.029622100830078126	0.03629700088500976	0.9507949829101563	0.019412799835205077	0.027869800567626953	0.9669929809570312	0.009068530082702636	0.019836999893188476	0.9818670043945312	-0.00672376012802124	0.006120019912719726	1.0043499755859375	-0.0373036003112793	-0.01562969970703125	1.072719970703125
62	2.066666666666667	0.03542559814453125	-0.11342299652099609	1.0075900268554687	0.02791469955444336	-0.09010050201416016	1.0210900268554688	0.0072199501991271975	-0.07480269622802735	1.0415999755859375	-0.0066936898231506345	-0.04221609878540039	1.0546199951171875	0.03138030052185058	-0.07576840209960937	0.9215469970703125	0.020116500854492188	-0.07267980194091797	0.9418309936523438	0.008668000221252442	-0.06862850189208984	0.9638049926757812	-0.007251220226287842	-0.05905640029907227	0.9996890258789063	0.033724098205566405	-0.03689459991455078	0.9047760009765625	0.020269100189208984	-0.037817401885986326	0.9265499877929687	0.003981450080871582	-0.03809049987792969	0.9540130004882813	-0.013293399810791015	-0.035397899627685546	0.9923270263671875	0.029841999053955078	0.001779399991035461	0.9113319702148438	0.018674400329589842	-0.0020920100212097168	0.9331619873046875	0.005879889965057373	-0.006733759880065918	0.9587899780273438	-0.010418700218200684	-0.013288900375366211	0.996031005859375	0.02956529998779297	0.036107200622558594	0.9506409912109375	0.019403099060058594	0.027747400283813478	0.9667490234375	0.009052470207214355	0.01974970054626465	0.9816370239257812	-0.006812079906463623	0.006073140144348144	1.0043300170898437	-0.03718579864501953	-0.01565250015258789	1.0726500244140624
63	2.1	0.03550310134887695	-0.11350199890136718	1.0076400146484374	0.027944700241088867	-0.090247802734375	1.0210599975585937	0.007096439838409424	-0.07491010284423828	1.0416300048828124	-0.006705820083618164	-0.04235660171508789	1.0545400390625	0.031174100875854493	-0.07612439727783203	0.9214990234375	0.019907400131225585	-0.07299230194091796	0.9418480224609375	0.008513070106506348	-0.06887419891357421	0.9638259887695313	-0.007300700187683105	-0.059256000518798826	0.9995850219726562	0.03374349975585938	-0.037167499542236325	0.9047479858398437	0.020251199722290038	-0.038063499450683595	0.9265130004882812	0.0039565999507904055	-0.03827790069580078	0.9539450073242187	-0.013218799591064452	-0.03561830139160156	0.992208984375	0.030240400314331055	0.001404340028762817	0.911447021484375	0.018959800720214845	-0.002402250051498413	0.9331129760742187	0.005937729835510254	-0.007016300201416015	0.9587559814453125	-0.010299599647521973	-0.013423700332641602	0.9958270263671875	0.02998740005493164	0.035722999572753905	0.950635009765625	0.019625999450683593	0.027383800506591796	0.9667769775390626	0.009169400215148926	0.019435800552368165	0.9816539916992187	-0.006758729934692383	0.005928840160369873	1.0042999877929688	-0.03714630126953125	-0.01579599952697754	1.072550048828125
64	2.1333333333333333	0.03625859832763672	-0.11330899810791016	1.00775	0.0284911994934082	-0.09000170135498047	1.021280029296875	0.00763962984085083	-0.07481310272216797	1.04172998046875	-0.006433070182800293	-0.04229470062255859	1.0546099853515625	0.03198970031738281	-0.07605899810791016	0.9217630004882813	0.02055430030822754	-0.07295559692382812	0.9419979858398437	0.009016830444335938	-0.06891230010986328	0.9639140014648437	-0.007002860069274902	-0.059349700927734374	0.9997030029296875	0.03483639907836914	-0.037226600646972655	0.9051719970703125	0.02108609962463379	-0.03811769866943359	0.926802978515625	0.00456624984741211	-0.038371101379394534	0.9541090087890625	-0.012984600067138672	-0.035666500091552734	0.992364013671875	0.03123609924316406	0.001238250017166137	0.9117999877929688	0.019767099380493165	-0.002526149988174438	0.933281982421875	0.0066379098892211915	-0.007116250038146973	0.9588259887695313	-0.009898320198059082	-0.013535599708557128	0.9958989868164062	0.03088759994506836	0.03542689895629883	0.9509979858398437	0.020320899963378908	0.027226200103759767	0.966989990234375	0.009653940200805664	0.019363800048828126	0.9817349853515625	-0.006505990028381347	0.00584703016281128	1.0043200073242187	-0.037014301300048826	-0.015821499824523924	1.072469970703125
65	2.1666666666666665	0.03699620056152344	-0.11303700256347657	1.0077999877929686	0.02905139923095703	-0.08972889709472656	1.0213599853515625	0.008094679832458497	-0.07469319915771484	1.04177001953125	-0.006028600215911865	-0.04224420166015625	1.0545799560546876	0.03269990158081055	-0.07588880157470704	0.9219539794921875	0.021213399887084962	-0.07286319732666016	0.9420989990234375	0.009482359886169434	-0.06884380340576172	0.963926025390625	-0.006700870037078858	-0.05925299835205078	0.999677001953125	0.03494810104370117	-0.037043800354003904	0.9050679931640625	0.02128019905090332	-0.03797760009765625	0.9267650146484375	0.0048291501998901365	-0.038299400329589846	0.9540989990234375	-0.012692700386047364	-0.03568849945068359	0.9923200073242188	0.03144720077514648	0.0014817600250244141	0.9117890014648438	0.02001300048828125	-0.002362750053405761	0.93335400390625	0.006950230121612549	-0.0070309901237487794	0.9588670043945312	-0.00970221996307373	-0.013607199668884278	0.9958809814453125	0.03179660034179688	0.03508969879150391	0.9513319702148437	0.020989999771118165	0.026903600692749025	0.967239990234375	0.01008839988708496	0.019144500732421875	0.9818759765625	-0.006251190185546875	0.0057868800163269046	1.0042899780273438	-0.03677439880371094	-0.015817299842834472	1.0726199951171875
